<svg width="40" height="40" viewBox="0 0 40 40" fill="none" xmlns="http://www.w3.org/2000/svg">
<path d="M5 20C5 12.9289 5 9.3934 7.1967 7.1967C9.3934 5 12.9289 5 20 5C27.071 5 30.6067 5 32.8033 7.1967C35 9.3934 35 12.9289 35 20C35 27.071 35 30.6067 32.8033 32.8033C30.6067 35 27.071 35 20 35C12.9289 35 9.3934 35 7.1967 32.8033C5 30.6067 5 27.071 5 20Z" stroke="white" stroke-width="1.8" stroke-linecap="round" stroke-linejoin="round"/>
<path d="M26.6673 19.9987C26.6673 23.6805 23.6825 26.6654 20.0007 26.6654C16.3188 26.6654 13.334 23.6805 13.334 19.9987C13.334 16.3168 16.3188 13.332 20.0007 13.332C23.6825 13.332 26.6673 16.3168 26.6673 19.9987Z" stroke="white" stroke-width="1.8" stroke-linecap="round" stroke-linejoin="round"/>
<path d="M28.957 11.2487H28.7487M29.1654 11.2487C29.1654 11.4788 28.9787 11.6654 28.7487 11.6654C28.5185 11.6654 28.332 11.4788 28.332 11.2487C28.332 11.0186 28.5185 10.832 28.7487 10.832C28.9787 10.832 29.1654 11.0186 29.1654 11.2487Z" stroke="white" stroke-width="1.8" stroke-linecap="round" stroke-linejoin="round"/>
</svg>
