<svg width="36" height="36" viewBox="0 0 36 36" fill="none" xmlns="http://www.w3.org/2000/svg">
<path d="M27.133 15.6044C26.6276 16.1128 26.2407 16.7264 25.9996 17.4013C25.7586 18.0764 25.6694 18.7962 25.7383 19.5097L25.7143 19.4857C25.7852 20.3256 25.6719 21.1706 25.3824 21.9622C25.093 22.7537 24.6343 23.4725 24.0384 24.0685C23.4424 24.6644 22.7236 25.1232 21.932 25.4125C21.1406 25.702 20.2954 25.8153 19.4556 25.7444L19.4796 25.7684C18.4751 25.6749 17.4662 25.8934 16.5903 26.3944C15.7146 26.8953 15.0146 27.6541 14.5859 28.5674C14.1572 29.4808 14.0206 30.504 14.1947 31.4978C14.369 32.4916 14.8454 33.4074 15.5591 34.1205C16.2728 34.8336 17.1891 35.3092 18.183 35.4824C19.177 35.6557 20.2 35.5181 21.113 35.0886C22.0259 34.659 22.784 33.9585 23.2842 33.0822C23.7843 32.206 24.002 31.1969 23.9076 30.1924L23.933 30.2164C23.862 29.3766 23.9752 28.5314 24.2647 27.7398C24.5542 26.9484 25.013 26.2296 25.6088 25.6336C26.2048 25.0377 26.9236 24.5789 27.7151 24.2896C28.5067 24.0001 29.3518 23.8868 30.1916 23.9577L30.1663 23.9337C30.9868 24.0074 31.8128 23.8729 32.5676 23.5425C33.3223 23.2121 33.9815 22.6965 34.4839 22.0436C34.9863 21.3906 35.3159 20.6213 35.4418 19.8072C35.5678 18.9929 35.4862 18.1601 35.2046 17.3857C34.923 16.6114 34.4504 15.9208 33.8308 15.3777C33.2112 14.8346 32.4646 14.4568 31.66 14.2792C30.8555 14.1016 30.0191 14.1298 29.2284 14.3614C28.4378 14.5932 27.7184 15.0206 27.137 15.6044H27.133Z" fill="#4B5563"/>
<path d="M17.2971 22.6257L17.2718 22.6017C17.9855 22.6735 18.7063 22.5859 19.3822 22.3451C20.0579 22.1043 20.6718 21.7165 21.1792 21.2094C21.6866 20.7023 22.0751 20.0887 22.3163 19.4131C22.5576 18.7375 22.6458 18.0169 22.5744 17.303L22.5998 17.327C22.5288 16.4871 22.6422 15.6421 22.9315 14.8505C23.221 14.059 23.6798 13.3402 24.2756 12.7442C24.8716 12.1483 25.5904 11.6895 26.3819 11.4002C27.1735 11.1107 28.0186 10.9974 28.8584 11.0683L28.8331 11.0443C29.8378 11.1387 30.847 10.9208 31.7232 10.4205C32.5996 9.92012 33.3002 9.16162 33.7295 8.24846C34.1588 7.33532 34.296 6.31194 34.1224 5.31793C33.9488 4.32392 33.4728 3.40768 32.7592 2.69416C32.0458 1.98065 31.1295 1.5046 30.1355 1.33097C29.1415 1.15733 28.1182 1.29454 27.205 1.7239C26.2918 2.15325 25.5334 2.85385 25.033 3.73013C24.5326 4.6064 24.3147 5.61569 24.4091 6.62033L24.3851 6.595C24.4562 7.43485 24.3431 8.2801 24.0538 9.07173C23.7644 9.86336 23.3056 10.5823 22.7098 11.1783C22.1138 11.7742 21.3948 12.233 20.6032 12.5223C19.8115 12.8117 18.9663 12.9247 18.1264 12.8537L18.1504 12.879C17.4367 12.8071 16.7158 12.8947 16.04 13.1355C15.3643 13.3762 14.7504 13.7642 14.243 14.2713C13.7355 14.7783 13.3471 15.3919 13.1058 16.0675C12.8646 16.7431 12.7764 17.4638 12.8478 18.1777L12.8238 18.1537C12.8944 18.9934 12.781 19.8385 12.4915 20.6299C12.2019 21.4213 11.7432 22.1401 11.1474 22.7359C10.5514 23.3318 9.83272 23.7905 9.0413 24.0801C8.24989 24.3695 7.40484 24.483 6.56509 24.4123L6.58909 24.4363C5.58445 24.3419 4.57516 24.5598 3.69888 25.0602C2.82261 25.5606 2.12201 26.319 1.69266 27.2322C1.2633 28.1454 1.12608 29.1687 1.29972 30.1627C1.47336 31.1567 1.94941 32.073 2.66292 32.7865C3.37644 33.5001 4.29268 33.9761 5.28669 34.1497C6.2807 34.3233 7.30408 34.1861 8.21724 33.7567C9.13038 33.3274 9.88888 32.6269 10.3892 31.7506C10.8896 30.8742 11.1075 29.865 11.0131 28.8603L11.0384 28.8843C10.9675 28.0445 11.0808 27.1994 11.3703 26.4078C11.6596 25.6163 12.1184 24.8975 12.7143 24.3015C13.3103 23.7057 14.0291 23.2469 14.8206 22.9575C15.6122 22.6681 16.4572 22.5547 17.2971 22.6257Z" fill="#1B86EF"/>
<path d="M8.35987 19.948C8.86523 19.4397 9.25213 18.8261 9.49299 18.151C9.73384 17.476 9.82269 16.756 9.7532 16.0426L9.77852 16.0666C9.70759 15.2266 9.82087 14.3812 10.1105 13.5894C10.4001 12.7977 10.8591 12.0788 11.4553 11.4828C12.0516 10.8868 12.7707 10.4281 13.5625 10.1389C14.3544 9.84959 15.1999 9.73666 16.0399 9.80796L16.0145 9.78396C17.0188 9.87805 18.0277 9.66007 18.9036 9.15975C19.7795 8.65944 20.4796 7.90113 20.9088 6.98827C21.3379 6.07539 21.4749 5.05239 21.3013 4.05875C21.1277 3.06511 20.6517 2.14921 19.9385 1.43596C19.2253 0.722707 18.3093 0.246814 17.3157 0.0731873C16.3221 -0.100453 15.2991 0.0366406 14.3863 0.465734C13.4733 0.894827 12.7151 1.59505 12.2148 2.47092C11.7144 3.34679 11.4964 4.35567 11.5905 5.35996L11.5665 5.33596C11.6375 6.17576 11.5241 7.02092 11.2347 7.81244C10.9452 8.60396 10.4866 9.32277 9.89061 9.91872C9.29468 10.5147 8.57585 10.9734 7.78433 11.2628C6.99281 11.5522 6.14767 11.6656 5.30787 11.5946L5.33187 11.6186C4.51129 11.545 3.68541 11.6798 2.93077 12.0104C2.17613 12.3409 1.51713 12.8566 1.01485 13.5097C0.512572 14.1626 0.183265 14.932 0.0574252 15.7461C-0.0684015 16.5604 0.0133185 17.3932 0.295012 18.1673C0.576705 18.9416 1.04928 19.6321 1.66892 20.175C2.28856 20.7181 3.03523 21.0958 3.83973 21.2734C4.64423 21.4509 5.48053 21.4225 6.27116 21.1909C7.06177 20.9592 7.78111 20.5317 8.36252 19.948H8.35987Z" fill="#4B5563"/>
</svg>
