<svg width="40" height="40" viewBox="0 0 40 40" fill="none" xmlns="http://www.w3.org/2000/svg">
<path d="M3.33398 8.33203L14.8557 14.8731C19.0652 17.2629 20.9362 17.2629 25.1457 14.8731L36.6673 8.33203" stroke="white" stroke-width="1.8" stroke-linejoin="round"/>
<path d="M17.5007 32.5013C16.7235 32.4911 15.9454 32.4763 15.1654 32.4566C9.91787 32.3248 7.29412 32.2588 5.40892 30.3653C3.5237 28.4718 3.46922 25.9158 3.36027 20.8036C3.32523 19.1598 3.32522 17.5258 3.36025 15.882C3.46922 10.7699 3.52368 8.21377 5.4089 6.32029C7.29412 4.4268 9.91787 4.36085 15.1654 4.22894C18.3995 4.14764 21.6018 4.14765 24.836 4.22895C30.0835 4.36087 32.7071 4.42684 34.5923 6.32032C36.4776 8.21379 36.5321 10.7699 36.641 15.882C36.6571 16.6388 36.6658 16.9955 36.6672 17.5013" stroke="white" stroke-width="1.8" stroke-linecap="round" stroke-linejoin="round"/>
<path d="M31.666 28.332C31.666 29.7127 30.5467 30.832 29.166 30.832C27.7853 30.832 26.666 29.7127 26.666 28.332C26.666 26.9514 27.7853 25.832 29.166 25.832C30.5467 25.832 31.666 26.9514 31.666 28.332ZM31.666 28.332V29.1654C31.666 30.546 32.7853 31.6654 34.166 31.6654C35.5467 31.6654 36.666 30.546 36.666 29.1654V28.332C36.666 24.1899 33.3082 20.832 29.166 20.832C25.0238 20.832 21.666 24.1899 21.666 28.332C21.666 32.4742 25.0238 35.832 29.166 35.832" stroke="white" stroke-width="1.8" stroke-linecap="round" stroke-linejoin="round"/>
</svg>
