<svg width="40" height="40" viewBox="0 0 40 40" fill="none" xmlns="http://www.w3.org/2000/svg">
<path d="M11.6009 4.16286C9.40349 4.79025 7.82372 5.56853 6.37807 6.50758C4.08929 7.99433 3.10804 10.6734 3.37744 13.2585C3.4913 14.3511 4.36839 14.8735 5.38547 14.5909C6.15817 14.3762 6.93212 14.1672 7.7 13.9394C9.94575 13.2733 10.474 12.4635 10.7861 10.1647L11.6009 4.16286ZM11.6009 4.16286C17.0317 2.61238 22.9697 2.61238 28.4005 4.16286M28.4005 4.16286C30.5978 4.79025 32.1777 5.56853 33.6232 6.50758C35.912 7.99433 36.8933 10.6734 36.6238 13.2585C36.51 14.3511 35.633 14.8735 34.6158 14.5909C33.8432 14.3762 33.0692 14.1672 32.3013 13.9394C30.0555 13.2733 29.5273 12.4635 29.2153 10.1647L28.4005 4.16286Z" stroke="white" stroke-width="1.8" stroke-linejoin="round"/>
<path d="M7.90063 23.6155L11.1558 21.304C12.0741 20.652 13.0051 20.215 14.0672 19.9321C15.2867 19.6073 15.8333 18.942 15.8333 17.5196C15.8333 13.9118 24.1667 13.5279 24.1667 17.5196C24.1667 18.942 24.7133 19.6073 25.9328 19.9321C27.0033 20.2171 27.9332 20.657 28.8442 21.304L32.0993 23.6155C33.5723 24.6615 34.2578 25.1671 34.6403 25.9711C35 26.7276 35 27.6146 35 29.3886C35 32.5781 35 34.173 34.107 35.1953C33.0253 36.4335 30.2133 36.3271 28.4862 36.3271H11.5139C9.78662 36.3271 7.03182 36.499 5.893 35.1953C5 34.173 5 32.5781 5 29.3886C5 27.6146 5 26.7276 5.35973 25.9711C5.7421 25.1671 6.4277 24.6615 7.90063 23.6155Z" stroke="white" stroke-width="1.8"/>
<path d="M23.3327 27.8598C23.3327 29.6701 21.8403 31.1376 19.9993 31.1376C18.1583 31.1376 16.666 29.6701 16.666 27.8598C16.666 26.0495 18.1583 24.582 19.9993 24.582C21.8403 24.582 23.3327 26.0495 23.3327 27.8598Z" stroke="white" stroke-width="1.8"/>
</svg>
